<?xml version="1.0" encoding="UTF-8" standalone="no"?>
<!-- Created with Inkscape (http://www.inkscape.org/) -->

<svg
   width="400mm"
   height="120.663mm"
   viewBox="0 0 400 120.663"
   version="1.1"
   id="svg5"
   inkscape:export-filename="complete.svg"
   inkscape:export-xdpi="96"
   inkscape:export-ydpi="96"
   xmlns:inkscape="http://www.inkscape.org/namespaces/inkscape"
   xmlns:sodipodi="http://sodipodi.sourceforge.net/DTD/sodipodi-0.dtd"
   xmlns="http://www.w3.org/2000/svg"
   xmlns:svg="http://www.w3.org/2000/svg">
  <sodipodi:namedview
     id="namedview7"
     pagecolor="#505050"
     bordercolor="#ffffff"
     borderopacity="1"
     inkscape:showpageshadow="0"
     inkscape:pageopacity="0"
     inkscape:pagecheckerboard="1"
     inkscape:deskcolor="#505050"
     inkscape:document-units="mm"
     showgrid="false" />
  <defs
     id="defs2" />
  <g
     inkscape:label="Layer 1"
     inkscape:groupmode="layer"
     id="layer1">
    <g
       id="g3764"
       transform="matrix(1.1070634,0,0,1.1070634,-22.085774,-14.396791)">
      <g
         aria-label="COMPLETE"
         transform="matrix(0.40961481,0,0,0.40961481,-4.9371713,-5.3875622)"
         id="text111"
         style="font-size:192px;white-space:pre;opacity:0.8">
        <path
           d="m 166.88281,106.53516 q 10.5,0 19.5,13.5 l 8.25,-13.5 h 1.5 l 1.5,51.75 h -4.5 q -3.75,-27 -15,-38.25 -4.5,-4.5 -10.5,-4.5 -6,0 -11.25,5.25 -13.5,13.5 -13.5,54.75 0,43.5 13.5,57 5.25,5.25 11.25,5.25 6.75,0 12,-5.25 9,-9 13.5,-30 h 4.5 q -3.75,26.25 -15,37.5 -7.5,7.5 -17.25,7.5 -12.75,0 -22.5,-9.75 -18.75,-18.75 -18.75,-62.25 0,-38.25 20.25,-58.5 10.5,-10.5 22.5,-10.5 z"
           style="-inkscape-font-specification:HGMinchoB;fill:#ff0000"
           id="path450" />
        <path
           d="m 259.13281,112.53516 q -6,0 -10.5,4.5 -12.75,12.75 -12.75,58.5 0,48.75 12.75,61.5 4.5,4.5 10.5,4.5 6,0 10.5,-4.5 12.75,-12.75 12.75,-61.5 0,-45.75 -12.75,-58.5 -4.5,-4.5 -10.5,-4.5 z m -21.75,3 q 9,-9 21.75,-9 12.75,0 21.75,9 18.75,18.75 18.75,60 0,44.25 -18.75,63 -9,9 -21.75,9 -12.75,0 -21.75,-9 -18.75,-18.75 -18.75,-63 0,-41.25 18.75,-60 z"
           style="-inkscape-font-specification:HGMinchoB;fill:#ff0000"
           id="path452" />
        <path
           d="m 334.88281,106.53516 20.25,90 17.25,-90 h 26.25 v 4.5 h -3 q -6,0 -6,6.75 v 118.5 q 0,6.75 6,6.75 h 3 v 4.5 h -33 v -4.5 h 2.25 q 6.75,0 6.75,-6.75 v -103.5 l -22.5,114.75 h -3 l -24.75,-114.75 v 103.5 q 0,6.75 6.75,6.75 h 3.75 v 4.5 h -24.75 v -4.5 h 3 q 6.75,0 6.75,-6.75 v -118.5 q 0,-6.75 -6.75,-6.75 h -3 v -4.5 z"
           style="-inkscape-font-specification:HGMinchoB;fill:#ff0000"
           id="path454" />
        <path
           d="m 450.38281,106.53516 q 22.5,0 32.25,9.75 10.5,10.5 10.5,28.5 0,18 -9.75,27.75 -9,9 -27,9 h -14.25 v 54.75 q 0,6.75 6.75,6.75 h 4.5 v 4.5 h -39.75 v -4.5 h 3.75 q 7.5,0 7.5,-6.75 v -118.5 q 0,-6.75 -7.5,-6.75 h -3.75 v -4.5 z m 0.75,4.5 q -9,0 -9,6.75 v 59.25 h 9 q 9,0 15.75,-6.75 6.75,-6.75 6.75,-24.75 0,-21 -8.25,-29.25 -5.25,-5.25 -14.25,-5.25 z"
           style="-inkscape-font-specification:HGMinchoB;fill:#ff0000"
           id="path456" />
        <path
           d="m 547.88281,106.53516 v 4.5 h -5.25 q -6.75,0 -6.75,6.75 v 118.5 q 0,6.75 12,6.75 9.75,0 15.75,-6 6,-6 9,-15.75 3.75,-11.25 6,-31.5 h 4.5 l -1.5,57.75 h -75 v -4.5 h 5.25 q 6.75,0 6.75,-6.75 v -118.5 q 0,-6.75 -6.75,-6.75 h -5.25 v -4.5 z"
           style="-inkscape-font-specification:HGMinchoB;fill:#ff0000"
           id="path458" />
        <path
           d="m 675.38281,106.53516 2.25,51 h -4.5 q -2.25,-29.25 -12.75,-39.75 -6.75,-6.75 -18,-6.75 -9,0 -9,6.75 v 53.25 h 3.75 q 14.25,0 14.25,-22.5 v -8.25 h 4.5 v 69 h -4.5 v -9.75 q 0,-23.25 -14.25,-23.25 h -3.75 v 60 q 0,6.75 11.25,6.75 9.75,0 15.75,-6 11.25,-11.25 15,-43.5 h 4.5 l -5.25,54 h -69.75 v -4.5 h 3.75 q 7.5,0 7.5,-6.75 v -118.5 q 0,-6.75 -7.5,-6.75 h -4.5 v -4.5 z"
           style="-inkscape-font-specification:HGMinchoB;fill:#ff0000"
           id="path460" />
        <path
           d="m 775.13281,106.53516 2.25,53.25 h -4.5 q -3.75,-24.75 -8.25,-36.75 -4.5,-12 -11.25,-12 -7.5,0 -7.5,13.5 v 111.75 q 0,6.75 6.75,6.75 h 7.5 v 4.5 h -45.75 v -4.5 h 7.5 q 6.75,0 6.75,-6.75 v -111.75 q 0,-13.5 -7.5,-13.5 -7.5,0 -11.25,12 -3.75,12 -8.25,36.75 h -4.5 l 2.25,-53.25 z"
           style="-inkscape-font-specification:HGMinchoB;fill:#ff0000"
           id="path462" />
        <path
           d="m 867.38281,106.53516 2.25,51 h -4.5 q -2.25,-29.25 -12.75,-39.75 -6.75,-6.75 -18,-6.75 -9,0 -9,6.75 v 53.25 h 3.75 q 14.25,0 14.25,-22.5 v -8.25 h 4.5 v 69 h -4.5 v -9.75 q 0,-23.25 -14.25,-23.25 h -3.75 v 60 q 0,6.75 11.25,6.75 9.75,0 15.75,-6 11.25,-11.25 15,-43.5 h 4.5 l -5.25,54 h -69.75 v -4.5 h 3.75 q 7.5,0 7.5,-6.75 v -118.5 q 0,-6.75 -7.5,-6.75 h -4.5 v -4.5 z"
           style="-inkscape-font-specification:HGMinchoB;fill:#ff0000"
           id="path464" />
      </g>
      <path
         id="rect1346"
         style="opacity:0.8;fill:#ff0000;fill-opacity:0;stroke:#fb0505;stroke-width:6.69938;stroke-linejoin:round;stroke-dasharray:none;stroke-opacity:1;paint-order:fill markers stroke"
         d="m 23.299569,118.62151 c 118.205621,0 236.411241,0 354.616861,0 0,-34.08911 0,-68.178221 0,-102.267334 -118.20562,0 -236.41124,0 -354.616861,0 0,34.089113 0,68.178224 0,102.267334 z" />
    </g>
  </g>
</svg>
