<?xml version="1.0" encoding="UTF-8" standalone="no"?>
<!-- Created with Inkscape (http://www.inkscape.org/) -->

<svg
   width="100mm"
   height="13.675mm"
   viewBox="0 0 100 13.675"
   version="1.1"
   id="svg1699"
   inkscape:export-filename="nxs-w.svg"
   inkscape:export-xdpi="96"
   inkscape:export-ydpi="96"
   xmlns:inkscape="http://www.inkscape.org/namespaces/inkscape"
   xmlns:sodipodi="http://sodipodi.sourceforge.net/DTD/sodipodi-0.dtd"
   xmlns="http://www.w3.org/2000/svg"
   xmlns:svg="http://www.w3.org/2000/svg">
  <sodipodi:namedview
     id="namedview1701"
     pagecolor="#505050"
     bordercolor="#ffffff"
     borderopacity="1"
     inkscape:showpageshadow="0"
     inkscape:pageopacity="0"
     inkscape:pagecheckerboard="1"
     inkscape:deskcolor="#505050"
     inkscape:document-units="mm"
     showgrid="false" />
  <defs
     id="defs1696">
    <rect
       x="166.17009"
       y="13.788582"
       width="56.214989"
       height="32.173359"
       id="rect5608" />
  </defs>
  <g
     inkscape:label="Layer 1"
     inkscape:groupmode="layer"
     id="layer1">
    <g
       id="g5627"
       transform="matrix(1.0268259,0,0,1.0268259,-4.390421,-14.05425)">
      <g
         aria-label="NATURAL"
         transform="matrix(1.5200483,0,0,1.7371969,-11.441729,-11.869885)"
         id="text5300"
         style="font-size:9.27153px;font-family:HGSMinchoE;-inkscape-font-specification:HGSMinchoE;opacity:1.0;fill:#a8a8a8;stroke-width:8.7605;stroke-linejoin:round;paint-order:fill markers stroke">
        <path
           d="m 14.595587,14.894294 v 7.329398 h -1.670505 l -0.991438,-3.331956 v 3.331956 h -1.593545 v -7.329398 h 1.593545 l 1.068399,3.300266 v -3.300266 z"
           style="font-family:Impact;-inkscape-font-specification:Impact;fill:#ffffff;stroke-width:8.76049"
           id="path5485" />
        <path
           d="m 18.651881,14.894294 1.091035,7.329398 H 17.79173 l -0.09507,-1.31739 h -0.683594 l -0.113178,1.31739 h -1.973822 l 0.968803,-7.329398 z M 17.642335,19.60702 Q 17.497467,18.362063 17.352599,16.533109 17.062864,18.63369 16.99043,19.60702 Z"
           style="font-family:Impact;-inkscape-font-specification:Impact;fill:#ffffff;stroke-width:8.76049"
           id="path5487" />
        <path
           d="m 23.396297,14.894294 v 1.466785 h -1.131778 v 5.862613 h -1.905915 v -5.862613 h -1.127252 v -1.466785 z"
           style="font-family:Impact;-inkscape-font-specification:Impact;fill:#ffffff;stroke-width:8.76049"
           id="path5489" />
        <path
           d="m 28.163349,14.894294 v 4.898338 q 0,0.832989 -0.05433,1.172522 -0.05433,0.335007 -0.321425,0.692649 -0.2671,0.353115 -0.70623,0.538726 -0.434603,0.181085 -1.027655,0.181085 -0.656431,0 -1.158941,-0.217302 -0.50251,-0.217301 -0.751501,-0.565889 -0.248991,-0.348588 -0.294262,-0.733392 -0.04527,-0.389332 -0.04527,-1.629762 v -4.336975 h 1.905916 v 5.495917 q 0,0.479874 0.0498,0.615687 0.05433,0.131287 0.212774,0.131287 0.181085,0 0.230883,-0.144868 0.05432,-0.149395 0.05432,-0.697176 v -5.400847 z"
           style="font-family:Impact;-inkscape-font-specification:Impact;fill:#ffffff;stroke-width:8.76049"
           id="path5491" />
        <path
           d="m 28.901268,14.894294 h 1.34908 q 1.34908,0 1.824427,0.104123 0.479874,0.104124 0.778664,0.5342 0.303316,0.425549 0.303316,1.362661 0,0.855625 -0.212774,1.149887 -0.212774,0.294263 -0.837516,0.353115 0.565889,0.140341 0.760555,0.375751 0.194666,0.23541 0.239937,0.434603 0.0498,0.194666 0.0498,1.08198 v 1.933078 h -1.770101 v -2.435588 q 0,-0.588524 -0.09507,-0.728865 -0.09054,-0.140341 -0.484401,-0.140341 v 3.304794 H 28.90127 Z m 1.905915,1.254011 v 1.629761 q 0.321425,0 0.448184,-0.08602 0.131287,-0.09054 0.131287,-0.574943 V 16.71419 q 0,-0.348588 -0.126759,-0.457239 -0.122233,-0.10865 -0.452712,-0.10865 z"
           style="font-family:Impact;-inkscape-font-specification:Impact;fill:#ffffff;stroke-width:8.76049"
           id="path5493" />
        <path
           d="m 37.185886,14.894294 1.091035,7.329398 h -1.951186 l -0.09507,-1.31739 h -0.683594 l -0.113178,1.31739 h -1.973822 l 0.968803,-7.329398 z M 36.17634,19.60702 q -0.144868,-1.244957 -0.289735,-3.073911 -0.289736,2.100581 -0.36217,3.073911 z"
           style="font-family:Impact;-inkscape-font-specification:Impact;fill:#ffffff;stroke-width:8.76049"
           id="path5495" />
        <path
           d="m 40.50879,14.894294 v 5.862613 h 1.158941 v 1.466785 h -3.064856 v -7.329398 z"
           style="font-family:Impact;-inkscape-font-specification:Impact;fill:#ffffff;stroke-width:8.76049"
           id="path5497" />
      </g>
      <g
         aria-label="SCIENCE"
         transform="scale(0.93541466,1.0690446)"
         id="text5300-6"
         style="font-size:14.7626px;font-family:HGSMinchoE;-inkscape-font-specification:HGSMinchoE;opacity:1.0;fill:#ffffff;stroke-width:13.9489;stroke-linejoin:round;paint-order:fill markers stroke">
        <path
           d="M 67.487072,16.580247 H 64.668627 V 15.71525 q 0,-0.605497 -0.108125,-0.771288 -0.108124,-0.165791 -0.360415,-0.165791 -0.273915,0 -0.418081,0.223458 -0.136958,0.223457 -0.136958,0.67758 0,0.583872 0.158583,0.879413 0.151374,0.29554 0.857787,0.713621 2.025533,1.203787 2.551739,1.975075 0.526206,0.771288 0.526206,2.486864 0,1.247036 -0.29554,1.838116 -0.288333,0.591081 -1.124495,0.994746 -0.836163,0.396456 -1.946242,0.396456 -1.218202,0 -2.083199,-0.461331 -0.857787,-0.461331 -1.124494,-1.174953 -0.266708,-0.713622 -0.266708,-2.025532 v -0.76408 h 2.818446 v 1.420035 q 0,0.655955 0.115333,0.843371 0.122541,0.187416 0.42529,0.187416 0.302748,0 0.446914,-0.237874 0.151375,-0.237874 0.151375,-0.706413 0,-1.030787 -0.281124,-1.347953 -0.288332,-0.317165 -1.420035,-1.05962 -1.131704,-0.749663 -1.499327,-1.088453 -0.367623,-0.33879 -0.612706,-0.937079 -0.237873,-0.598289 -0.237873,-1.52816 0,-1.340744 0.33879,-1.960658 0.345998,-0.619914 1.110078,-0.965912 0.76408,-0.353207 1.845325,-0.353207 1.182161,0 2.011116,0.38204 0.836163,0.38204 1.10287,0.965912 0.273915,0.576664 0.273915,1.967866 z"
           style="font-family:Impact;-inkscape-font-specification:Impact"
           id="path8267" />
        <path
           d="m 75.776618,18.13724 h -3.034694 v -2.032741 q 0,-0.886621 -0.100916,-1.10287 -0.09371,-0.223458 -0.42529,-0.223458 -0.374832,0 -0.475748,0.266708 -0.100916,0.266707 -0.100916,1.153328 v 5.420642 q 0,0.850579 0.100916,1.110078 0.100916,0.259499 0.454123,0.259499 0.33879,0 0.439706,-0.259499 0.108125,-0.259499 0.108125,-1.218203 v -1.463285 h 3.034694 v 0.454123 q 0,1.809284 -0.259498,2.566155 -0.252291,0.756872 -1.131704,1.326328 -0.872204,0.569455 -2.155282,0.569455 -1.333535,0 -2.198531,-0.482956 -0.864996,-0.482956 -1.14612,-1.333535 -0.281124,-0.857788 -0.281124,-2.573364 v -3.409526 q 0,-1.261453 0.0865,-1.888575 0.0865,-0.63433 0.511789,-1.218203 0.432498,-0.583872 1.18937,-0.915454 0.76408,-0.33879 1.751617,-0.33879 1.340744,0 2.212948,0.518998 0.872205,0.518997 1.14612,1.297494 0.273915,0.771288 0.273915,2.407572 z"
           style="font-family:Impact;-inkscape-font-specification:Impact"
           id="path8269" />
        <path
           d="M 79.899767,13.048179 V 24.718418 H 76.865072 V 13.048179 Z"
           style="font-family:Impact;-inkscape-font-specification:Impact"
           id="path8271" />
        <path
           d="m 81.117969,13.048179 h 5.060228 v 2.33549 h -2.025533 v 2.212948 h 1.895783 v 2.220157 h -1.895783 v 2.566155 h 2.227365 v 2.335489 h -5.26206 z"
           style="font-family:Impact;-inkscape-font-specification:Impact"
           id="path8273" />
        <path
           d="m 94.028036,13.048179 v 11.670239 h -2.659863 l -1.578618,-5.305309 v 5.305309 H 87.252233 V 13.048179 h 2.537322 l 1.701159,5.254851 v -5.254851 z"
           style="font-family:Impact;-inkscape-font-specification:Impact"
           id="path8275" />
        <path
           d="m 102.332,18.13724 h -3.034694 v -2.032741 q 0,-0.886621 -0.100917,-1.10287 -0.09371,-0.223458 -0.425289,-0.223458 -0.374832,0 -0.475748,0.266708 -0.100916,0.266707 -0.100916,1.153328 v 5.420642 q 0,0.850579 0.100916,1.110078 0.100916,0.259499 0.454123,0.259499 0.33879,0 0.439706,-0.259499 0.108125,-0.259499 0.108125,-1.218203 V 20.047439 H 102.332 v 0.454123 q 0,1.809284 -0.2595,2.566155 -0.25229,0.756872 -1.1317,1.326328 -0.87221,0.569455 -2.155284,0.569455 -1.333535,0 -2.198532,-0.482956 -0.864996,-0.482956 -1.146119,-1.333535 -0.281124,-0.857788 -0.281124,-2.573364 v -3.409526 q 0,-1.261453 0.0865,-1.888575 0.0865,-0.63433 0.511789,-1.218203 0.432498,-0.583872 1.189369,-0.915454 0.76408,-0.33879 1.751618,-0.33879 1.340743,0 2.212943,0.518998 0.87221,0.518997 1.14612,1.297494 0.27392,0.771288 0.27392,2.407572 z"
           style="font-family:Impact;-inkscape-font-specification:Impact"
           id="path8277" />
        <path
           d="m 103.42045,13.048179 h 5.06023 v 2.33549 h -2.02553 v 2.212948 h 1.89578 v 2.220157 h -1.89578 v 2.566155 h 2.22736 v 2.335489 h -5.26206 z"
           style="font-family:Impact;-inkscape-font-specification:Impact"
           id="path8279" />
      </g>
      <g
         aria-label="X"
         transform="matrix(0.43922859,0,0,0.26353715,-21.256609,12.534333)"
         id="text5606"
         style="font-size:24px;font-family:Impact;-inkscape-font-specification:Impact;white-space:pre;shape-inside:url(#rect5608);opacity:1.0;fill:#696969;stroke-width:22.6772;stroke-linejoin:round;paint-order:fill markers stroke">
        <path
           d="m 177.15039,20.797862 -1.72266,8.390625 2.60157,10.582032 h -4.57032 q -0.82031,-2.835938 -1.5,-6.902344 -0.1875,1.792969 -0.51562,3.808594 l -0.46875,3.09375 h -4.80469 l 1.78125,-10.582032 -1.78125,-8.390625 h 4.76953 q 0.12891,0.785157 0.51563,2.613282 0.30469,1.394531 0.5039,2.554687 l 1.05469,-5.167969 z"
           id="path5612"
           style="fill:#696969" />
      </g>
    </g>
  </g>
</svg>
