<?xml version="1.0" encoding="UTF-8" standalone="no"?>
<!-- Created with Inkscape (http://www.inkscape.org/) -->

<svg
   width="300"
   height="33.951"
   viewBox="0 0 79.374998 8.9828686"
   version="1.1"
   id="svg5"
   inkscape:export-filename="tyfc.svg"
   inkscape:export-xdpi="96"
   inkscape:export-ydpi="96"
   xmlns:inkscape="http://www.inkscape.org/namespaces/inkscape"
   xmlns:sodipodi="http://sodipodi.sourceforge.net/DTD/sodipodi-0.dtd"
   xmlns="http://www.w3.org/2000/svg"
   xmlns:svg="http://www.w3.org/2000/svg">
  <sodipodi:namedview
     id="namedview7"
     pagecolor="#505050"
     bordercolor="#ffffff"
     borderopacity="1"
     inkscape:showpageshadow="0"
     inkscape:pageopacity="0"
     inkscape:pagecheckerboard="1"
     inkscape:deskcolor="#505050"
     inkscape:document-units="mm"
     showgrid="false" />
  <defs
     id="defs2" />
  <g
     inkscape:label="Layer 1"
     inkscape:groupmode="layer"
     id="layer1">
    <g
       aria-label="Thank you for coming"
       id="text1697"
       style="font-weight:bold;font-size:4.58611px;font-family:'Meiryo UI';-inkscape-font-specification:'Meiryo UI Bold';stroke-width:6.00001;stroke-linejoin:round;paint-order:stroke fill markers"
       transform="matrix(1.9573577,0,0,1.9573577,-33.448089,-6.6265219)">
      <path
         d="m 18.380237,4.4143176 q -0.08255,0 -0.137584,0.02293 -0.05045,0.022931 -0.09172,0.091722 -0.04127,0.064205 -0.07338,0.1880305 -0.0321,0.1192388 -0.07338,0.3210277 l -0.57785,0.036689 q 0.02752,-0.1651 0.05962,-0.371475 0.0321,-0.210961 0.06421,-0.4265082 0.03669,-0.2201333 0.05962,-0.4035777 l 0.06879,-0.064206 0.527403,0.050447 h 1.701446 L 20.508192,3.8089511 20.35685,4.762862 Q 20.177992,4.6252787 20.035822,4.5519009 19.898239,4.4785231 19.733139,4.4510065 q -0.1651,-0.032103 -0.421922,-0.036689 -0.0321,0.2247194 -0.0642,0.4356805 -0.02752,0.210961 -0.05503,0.4035776 -0.02752,0.1880306 -0.05045,0.3485444 -0.01834,0.1559278 -0.0321,0.2797527 -0.01376,0.1192389 -0.02293,0.1972028 -0.0092,0.073378 -0.0092,0.1008944 0,0.1054805 0.01835,0.1605138 0.01834,0.050447 0.08714,0.059619 0.07338,0.00917 0.229306,-0.00459 l 0.01834,0.027517 -0.09172,0.4310944 q -0.137584,-0.00917 -0.298097,-0.013758 -0.155928,-0.00459 -0.298098,-0.00917 -0.142169,-0.00459 -0.224719,-0.00459 -0.123825,0 -0.385233,0.00917 -0.256822,0.013758 -0.531989,0.032103 l 0.08714,-0.4219221 q 0.137583,-0.013758 0.22472,-0.032103 0.09172,-0.02293 0.142169,-0.064205 0.05503,-0.045861 0.08255,-0.1146528 0.02752,-0.068792 0.04127,-0.1788583 z m 3.251552,1.6922746 q 0.01376,0 0.0321,-0.00917 0.01834,-0.013758 0.06421,-0.055033 0.05045,-0.041275 0.14217,-0.123825 l 0.110066,0.018345 0.08714,0.2201332 q -0.238477,0.2705805 -0.408164,0.4265083 -0.165099,0.1559277 -0.298097,0.2201333 -0.128411,0.064205 -0.256822,0.064205 -0.302683,0 -0.302683,-0.2705805 0,-0.059619 0.02752,-0.1696861 0.02752,-0.1146527 0.06879,-0.252236 0.04586,-0.1375833 0.08714,-0.2751666 0.04127,-0.1375833 0.06879,-0.24765 0.02752,-0.1100666 0.02752,-0.1605138 0,-0.064206 -0.02293,-0.096308 -0.01834,-0.032103 -0.05962,-0.032103 -0.05045,0 -0.132998,0.1284111 -0.08255,0.1238249 -0.183444,0.3485443 -0.100894,0.2201333 -0.201789,0.5090583 l -0.0321,0.2705805 q -0.0092,0.064205 -0.10548,0.1192388 -0.09631,0.055033 -0.24765,0.087136 -0.151342,0.032103 -0.325614,0.032103 l -0.09172,-0.1054805 q 0.05503,-0.3485444 0.119239,-0.7383638 0.06421,-0.3944054 0.123825,-0.7796387 0.05962,-0.3852332 0.110066,-0.7200193 0.05503,-0.334786 0.09172,-0.5778499 0.03669,-0.2430638 0.05045,-0.3439582 l 0.07338,-0.123825 0.687916,-0.045861 0.06879,0.096308 q -0.03669,0.1742722 -0.08714,0.4127499 -0.04586,0.2338917 -0.100895,0.4952999 -0.05045,0.2614083 -0.100894,0.5228166 -0.04586,0.2614083 -0.08255,0.4907138 l 0.0321,-0.00459 q 0.146755,-0.3347861 0.279752,-0.541161 0.137584,-0.2109611 0.261409,-0.2935111 0.321027,0 0.499886,0.1329972 0.183444,0.1284111 0.183444,0.3577166 0,0.068792 -0.03669,0.206375 -0.03669,0.1375833 -0.08714,0.293511 -0.04586,0.1559277 -0.09172,0.293511 -0.04127,0.1329972 -0.05503,0.206375 z"
         style="font-family:Alegreya;-inkscape-font-specification:'Alegreya Bold';fill:#8d0000;stroke-width:6"
         id="path2577" />
      <path
         d="m 24.057842,6.1203506 q 0.01834,0 0.04586,-0.018345 0.0321,-0.02293 0.07796,-0.064205 0.05045,-0.041275 0.114653,-0.1054806 l 0.10548,0.018345 0.09172,0.2201333 q -0.252236,0.2797527 -0.421922,0.4356804 -0.1651,0.1513417 -0.293511,0.2155472 -0.123825,0.059619 -0.256822,0.059619 -0.114653,0 -0.174272,-0.055033 -0.05962,-0.055033 -0.05962,-0.1650999 0,-0.050447 0.02752,-0.1742722 0.02752,-0.1284111 0.08714,-0.3852333 h -0.04586 q -0.18803,0.3210277 -0.3302,0.499886 -0.137583,0.1788583 -0.279753,0.2797527 -0.325613,0 -0.509058,-0.1880305 -0.183444,-0.1926166 -0.183444,-0.5319887 0,-0.2705805 0.100894,-0.5365749 0.100895,-0.2659944 0.270581,-0.4815416 0.169686,-0.2201333 0.376061,-0.3485444 0.206375,-0.1329972 0.417336,-0.1329972 l 0.3302,0.091722 0.02293,-0.091722 0.08714,-0.055033 0.614539,0.055033 0.03669,0.1054806 q -0.05962,0.2659944 -0.114653,0.5182304 -0.05045,0.24765 -0.09172,0.458611 -0.03669,0.206375 -0.06421,0.3623027 z m -1.100666,0.050447 q 0.03669,0 0.09631,-0.077964 0.05962,-0.077964 0.123825,-0.2109611 0.06879,-0.1329972 0.132997,-0.293511 0.06421,-0.1605139 0.110067,-0.3256138 -0.09172,-0.05962 -0.178859,-0.087136 -0.08714,-0.032103 -0.160513,-0.032103 -0.04127,0 -0.08714,0.1146528 -0.04127,0.1100666 -0.07338,0.2751666 -0.02752,0.1650999 -0.02752,0.334786 0,0.1284111 0.01834,0.2155472 0.01835,0.087136 0.04586,0.087136 z"
         style="font-family:Alegreya;-inkscape-font-specification:'Alegreya Bold';fill:#8d0000;stroke-width:6"
         id="path2579" />
      <path
         d="m 26.002352,6.8678865 q -0.298097,0 -0.298097,-0.2705805 0,-0.059619 0.02752,-0.1696861 0.02752,-0.1146527 0.06879,-0.252236 0.04127,-0.1375833 0.07796,-0.2751666 0.04128,-0.1375833 0.06879,-0.24765 0.02752,-0.1100666 0.02752,-0.1605138 0,-0.064206 -0.01835,-0.096308 -0.01834,-0.032103 -0.05503,-0.032103 -0.05045,0 -0.137583,0.1421694 -0.08714,0.1421694 -0.192617,0.3944055 -0.100894,0.2476499 -0.201789,0.5640915 l 0.119239,-1.0135303 0.105481,-0.013758 q 0.137583,-0.3302 0.265994,-0.541161 0.132997,-0.2109611 0.24765,-0.2935111 0.316442,0 0.4953,0.1329972 0.178858,0.1284111 0.178858,0.3577166 0,0.068792 -0.03669,0.206375 -0.0321,0.1375833 -0.08255,0.293511 -0.04586,0.1559277 -0.08714,0.293511 -0.04127,0.1329972 -0.05503,0.206375 l 0.01376,0.013758 q 0.01376,0 0.03669,-0.013758 0.02293,-0.018344 0.06879,-0.059619 0.04586,-0.041275 0.123825,-0.1146528 l 0.110066,0.018345 0.08255,0.2201332 Q 26.713199,6.432206 26.5481,6.5881338 26.383,6.7394754 26.254588,6.803681 26.130763,6.867886 26.002352,6.8678865 Z m -1.302455,-0.00917 -0.09172,-0.1054805 q 0.0321,-0.1926167 0.06421,-0.4173361 0.03669,-0.2247194 0.06879,-0.4356804 0.03669,-0.2155472 0.05962,-0.3760611 0.02752,-0.1650999 0.04127,-0.2384777 0.01834,-0.1054805 -0.01376,-0.1513416 -0.0321,-0.045861 -0.123825,-0.045861 h -0.123825 l 0.05503,-0.376061 q 0.169686,0 0.449438,-0.013758 0.279753,-0.018344 0.559506,-0.041275 l 0.05962,0.096308 q -0.02752,0.096308 -0.05962,0.2338917 -0.02752,0.1375833 -0.05503,0.2751666 -0.02293,0.1375833 -0.03669,0.2430638 l -0.137584,0.7704665 -0.04128,0.3439583 q -0.0092,0.064205 -0.10548,0.1192388 -0.09172,0.055033 -0.243064,0.087136 -0.151342,0.032103 -0.325614,0.032103 z"
         style="font-family:Alegreya;-inkscape-font-specification:'Alegreya Bold';fill:#8d0000;stroke-width:6"
         id="path2581" />
      <path
         d="m 28.043171,5.9231478 0.04586,-0.087136 q 0,0 0.05045,-0.022931 0.05503,-0.022931 0.123825,-0.068792 0.07338,-0.050447 0.123825,-0.1192388 0.05503,-0.068792 0.05503,-0.1605139 0,-0.055033 -0.02293,-0.077964 -0.01834,-0.022931 -0.06421,-0.022931 -0.05503,0 -0.146756,0.1284111 -0.09172,0.1238249 -0.201789,0.3485443 -0.10548,0.2201333 -0.215547,0.5090583 l -0.0321,0.2705805 q -0.0092,0.064205 -0.10548,0.1192388 -0.09631,0.055033 -0.24765,0.087136 -0.151342,0.032103 -0.325614,0.032103 l -0.09172,-0.1054805 q 0,0 0.02293,-0.1375833 0.02293,-0.1421695 0.05962,-0.3760611 0.04127,-0.2338916 0.08714,-0.5136443 0.05045,-0.2843388 0.09631,-0.5732638 0.04586,-0.2889249 0.08255,-0.5365749 0.04127,-0.2476499 0.06421,-0.4127499 0.02293,-0.1650999 0.02293,-0.1972027 0,-0.1513416 -0.151341,-0.1513416 h -0.128411 l 0.05503,-0.3760611 q 0.155928,0 0.334786,-0.00917 0.178858,-0.00917 0.339372,-0.018344 0.1651,-0.00917 0.265994,-0.018344 0.105481,-0.00917 0.105481,-0.00917 l 0.06879,0.096308 q 0,0 -0.02752,0.1192389 -0.02293,0.1146527 -0.06421,0.3164416 -0.04127,0.2017888 -0.09172,0.4540249 -0.04586,0.2476499 -0.09631,0.5136443 -0.05045,0.2659944 -0.09172,0.5182305 l 0.0321,-0.00459 q 0.14217,-0.3256139 0.275167,-0.5365749 0.137583,-0.2155472 0.265994,-0.2980972 0.339373,0 0.531989,0.1375833 0.192617,0.1329972 0.192617,0.3714749 0,0.2109611 -0.132997,0.4173361 -0.128411,0.2063749 -0.380648,0.3944054 0.05045,0.1100667 0.114653,0.2430639 0.06421,0.1329972 0.123825,0.252236 0.05962,0.1192389 0.09631,0.1972028 0.04127,0.073378 0.04127,0.073378 l -0.01835,0.096308 -0.74295,0.1008945 -0.05962,-0.032103 z"
         style="font-family:Alegreya;-inkscape-font-specification:'Alegreya Bold';fill:#8d0000;stroke-width:6"
         id="path2583" />
      <path
         d="m 31.083766,4.7307592 0.862189,-0.123825 q 0.05503,0.068792 0.08255,0.1880305 0.0321,0.1146528 0.0321,0.2614083 0,0.2797527 -0.224719,0.7154332 -0.220133,0.4356805 -0.669572,1.0548053 -0.431095,0.5870221 -0.756708,0.8484304 -0.325614,0.2614083 -0.632884,0.2614083 -0.178858,0 -0.321027,-0.077964 -0.14217,-0.077964 -0.183445,-0.1972027 0.04586,-0.1467556 0.119239,-0.288925 0.06879,-0.1375833 0.178858,-0.2659944 l 0.06879,-0.00459 q 0.132997,0.1605139 0.238478,0.2109611 0.110067,0.055033 0.229305,-0.00459 0.119239,-0.055033 0.279753,-0.2247194 -0.05503,-0.4540249 -0.110067,-0.8346721 -0.05045,-0.3852332 -0.09172,-0.6558137 -0.04128,-0.2705805 -0.06879,-0.3806471 -0.01835,-0.077964 -0.05045,-0.1054806 -0.02752,-0.032103 -0.08714,-0.032103 -0.02293,0 -0.05962,0.00459 -0.03669,0 -0.05962,0 l 0.02752,-0.3623027 0.944739,-0.073378 0.05045,0.041275 q 0.01376,0.2247194 0.01834,0.5870221 0.0092,0.3577166 0.01376,0.9447387 h 0.06421 q 0.08255,-0.1880305 0.146756,-0.3714749 0.06421,-0.1834445 0.100894,-0.3347861 0.04127,-0.1559277 0.04127,-0.2430638 0,-0.2293055 -0.233891,-0.3164416 z"
         style="font-family:Alegreya;-inkscape-font-specification:'Alegreya Bold';fill:#8d0000;stroke-width:6"
         id="path2585" />
      <path
         d="m 32.899865,6.8816448 q -0.389819,0 -0.605366,-0.2338916 -0.215547,-0.2338916 -0.215547,-0.6649859 0,-0.3118555 0.08714,-0.5640916 0.08714,-0.252236 0.24765,-0.4310943 0.1651,-0.1834444 0.394405,-0.2797528 0.229306,-0.1008944 0.509058,-0.1008944 0.398992,0 0.609953,0.2247194 0.210961,0.2201333 0.210961,0.6420554 0,0.3164416 -0.08714,0.5778499 -0.08714,0.2568222 -0.252236,0.4448527 -0.160514,0.1834444 -0.389819,0.2843388 -0.229306,0.1008944 -0.509059,0.1008944 z m 0.178859,-0.4907137 q 0.08714,0 0.137583,-0.064206 0.05045,-0.064205 0.07338,-0.2293055 0.02293,-0.1651 0.02293,-0.458611 0,-0.2568222 -0.03669,-0.3668888 -0.03669,-0.1146528 -0.137583,-0.1146528 -0.08714,0 -0.142169,0.064206 -0.05045,0.064206 -0.07338,0.2155472 -0.02293,0.1467555 -0.02293,0.4035776 0,0.3072694 0.03669,0.4310944 0.04127,0.1192389 0.142169,0.1192389 z"
         style="font-family:Alegreya;-inkscape-font-specification:'Alegreya Bold';fill:#8d0000;stroke-width:6"
         id="path2587" />
      <path
         d="m 35.018648,6.8678865 q -0.302683,0 -0.472369,-0.1284111 -0.1651,-0.1329972 -0.1651,-0.3623027 0,-0.068792 0.02752,-0.1834444 0.02752,-0.1192388 0.06421,-0.252236 0.04127,-0.1375833 0.07796,-0.2705805 0.03669,-0.1375833 0.06421,-0.2522361 0.02752,-0.1146527 0.02752,-0.1788583 0,-0.1513416 -0.151342,-0.1513416 h -0.128411 l 0.05503,-0.376061 q 0.110066,0 0.265994,-0.00459 0.160514,-0.00917 0.353131,-0.022931 0.197202,-0.013758 0.403577,-0.027517 l 0.07338,0.091722 q -0.100894,0.3485444 -0.178858,0.6191249 -0.07338,0.2659944 -0.114653,0.4310944 -0.04127,0.1650999 -0.04127,0.2063749 0,0.050447 0.0092,0.077964 0.01376,0.02293 0.05045,0.02293 0.05503,0 0.146756,-0.1467555 0.09172,-0.1467555 0.210961,-0.4310943 0.123825,-0.2843389 0.270581,-0.6970888 L 35.679094,6.0515537 35.564441,6.0240367 Q 35.422272,6.3496506 35.289275,6.5606116 35.156277,6.7715727 35.018694,6.867881 Z m 0.683331,0.013758 q -0.233892,0 -0.233892,-0.2201332 0,-0.027517 0.0046,-0.064206 0.0092,-0.041275 0.02752,-0.123825 0.01834,-0.08255 0.05503,-0.2384777 0.03669,-0.1605138 0.100894,-0.4219221 l 0.05045,-0.3485444 0.09631,-0.7567082 0.09172,-0.055033 0.674158,0.00459 0.06879,0.091722 q -0.05962,0.1880306 -0.123825,0.4127499 -0.05962,0.2247194 -0.110067,0.4448527 -0.05045,0.2201333 -0.08714,0.4035777 l 0.01835,0.018344 q 0.02293,-0.013758 0.04586,-0.027517 0.02293,-0.013758 0.04586,-0.032103 0.02752,-0.018344 0.05045,-0.036689 l 0.105481,0.018345 0.09172,0.2201333 q -0.252236,0.2797527 -0.421922,0.4356804 -0.1651,0.1513417 -0.293511,0.2155472 -0.123825,0.059619 -0.256822,0.059619 z"
         style="font-family:Alegreya;-inkscape-font-specification:'Alegreya Bold';fill:#8d0000;stroke-width:6"
         id="path2589" />
      <path
         d="m 37.265848,5.0655452 0.03669,-0.3026832 0.403578,-0.05962 0.02293,-0.2201332 Q 37.751975,4.2859065 37.8758,4.097876 38.004211,3.9098455 38.196828,3.7585039 38.389444,3.6025761 38.61875,3.51544 q 0.229305,-0.091722 0.449439,-0.091722 0.132997,0 0.275166,0.018344 0.14217,0.018344 0.233892,0.050447 l 0.01834,0.050447 -0.27058,0.6007804 -0.09172,0.013758 q -0.14217,-0.1100666 -0.233892,-0.1513416 -0.08714,-0.045861 -0.169686,-0.045861 -0.146755,0 -0.220133,0.087136 -0.06879,0.08255 -0.09631,0.2980971 l -0.04127,0.3668889 h 0.573264 l 0.0321,0.032103 -0.05503,0.3439583 -0.559506,-0.00459 -0.03669,0.02293 -0.18803,1.747308 q -0.01835,0.1926166 -0.128411,0.3852332 -0.110067,0.1926167 -0.275167,0.3485444 -0.160514,0.1605139 -0.348544,0.2522361 -0.183445,0.096308 -0.357717,0.096308 -0.220133,0 -0.394405,-0.08255 -0.174272,-0.08255 -0.220134,-0.2017889 0.02752,-0.091722 0.08255,-0.210961 0.05503,-0.1146528 0.123825,-0.2247194 0.06421,-0.1054806 0.114653,-0.1696861 h 0.09172 q 0.01834,0.1972027 0.09172,0.2797527 0.07338,0.08255 0.238477,0.08255 0.132997,0 0.215547,-0.096308 0.08255,-0.091722 0.08255,-0.2751666 0,-0.064206 -0.0046,-0.1375833 0,-0.073378 0.0046,-0.1100667 l 0.114653,-1.6555857 -0.05045,-0.045861 h -0.339372 z"
         style="font-family:Alegreya;-inkscape-font-specification:'Alegreya Bold';fill:#8d0000;stroke-width:6"
         id="path2591" />
      <path
         d="m 39.641452,6.8816448 q -0.389819,0 -0.605366,-0.2338916 -0.215548,-0.2338916 -0.215548,-0.6649859 0,-0.3118555 0.08714,-0.5640916 0.08714,-0.252236 0.24765,-0.4310943 0.1651,-0.1834444 0.394406,-0.2797528 0.229305,-0.1008944 0.509058,-0.1008944 0.398992,0 0.609953,0.2247194 0.210961,0.2201333 0.210961,0.6420554 0,0.3164416 -0.08714,0.5778499 Q 40.70543,6.3083811 40.54033,6.4964116 40.379816,6.679856 40.15051,6.7807504 39.921205,6.8816448 39.641452,6.8816448 Z M 39.82031,6.3909311 q 0.08714,0 0.137584,-0.064206 0.05045,-0.064205 0.07338,-0.2293055 0.02293,-0.1651 0.02293,-0.458611 0,-0.2568222 -0.03669,-0.3668888 -0.03669,-0.1146528 -0.137583,-0.1146528 -0.08714,0 -0.14217,0.064206 -0.05045,0.064206 -0.07338,0.2155472 -0.02293,0.1467555 -0.02293,0.4035776 0,0.3072694 0.03669,0.4310944 0.04128,0.1192389 0.142169,0.1192389 z"
         style="font-family:Alegreya;-inkscape-font-specification:'Alegreya Bold';fill:#8d0000;stroke-width:6"
         id="path2593" />
      <path
         d="m 41.095251,6.7532338 q 0,0 0.01834,-0.096308 0.01835,-0.1008944 0.04586,-0.2568221 0.02752,-0.1605139 0.05503,-0.3393722 0.0321,-0.1834444 0.05962,-0.3577166 0.02752,-0.1742721 0.04586,-0.3026832 0.01835,-0.1284111 0.01835,-0.1742722 0,-0.064206 -0.03669,-0.1008944 -0.03669,-0.036689 -0.114653,-0.036689 h -0.128411 l 0.05503,-0.376061 q 0.151342,0 0.325614,-0.00917 0.178858,-0.00917 0.334786,-0.018344 0.160514,-0.00917 0.261408,-0.018344 0.100895,-0.00917 0.100895,-0.00917 l 0.06421,0.096308 q 0,0 -0.02293,0.091722 -0.02293,0.087136 -0.05503,0.2247194 -0.02752,0.1329972 -0.05045,0.2797528 l 0.0321,-0.00459 q 0.105481,-0.2201333 0.220133,-0.3806472 0.119239,-0.1651 0.243064,-0.2568222 0.128411,-0.091722 0.265994,-0.091722 0.03669,0.018345 0.07796,0.05962 0.04127,0.041275 0.05962,0.087136 -0.01376,0.1284111 -0.05045,0.3118555 -0.03669,0.1788582 -0.08255,0.3531304 -0.04127,0.1742722 -0.07338,0.288925 -0.0321,0.1146527 -0.0321,0.1146527 h -0.325614 q 0.0321,-0.1650999 0.01376,-0.2293055 -0.01376,-0.068792 -0.06421,-0.068792 -0.08255,0 -0.201789,0.1972027 -0.119239,0.1972027 -0.24765,0.5457471 l -0.04128,0.3439583 q -0.0092,0.064205 -0.10548,0.1192388 -0.09631,0.055033 -0.24765,0.087136 -0.151342,0.032103 -0.325614,0.032103 z"
         style="font-family:Alegreya;-inkscape-font-specification:'Alegreya Bold';fill:#8d0000;stroke-width:6"
         id="path2595" />
      <path
         d="m 44.612802,5.1618535 q -0.08714,0 -0.155927,0.096308 -0.06421,0.091722 -0.105481,0.252236 -0.03669,0.1605139 -0.03669,0.3714749 0,0.1742722 0.05503,0.2659944 0.05962,0.091722 0.1651,0.091722 0.09172,0 0.178858,-0.087136 0.09172,-0.087136 0.1651,-0.252236 l 0.09631,0.013758 0.238478,0.2659944 q -0.07338,0.1926166 -0.229306,0.3531305 -0.155927,0.1559277 -0.348544,0.252236 -0.192617,0.096308 -0.380647,0.096308 -0.339372,0 -0.541161,-0.2201332 -0.201789,-0.2247194 -0.201789,-0.6007805 0,-0.2980971 0.100894,-0.5595054 0.100895,-0.2659944 0.279753,-0.4631971 0.178858,-0.2017889 0.408164,-0.3118555 0.233892,-0.1146528 0.499886,-0.1146528 0.137583,0 0.27058,0.032103 0.137584,0.027517 0.229306,0.077964 l 0.01834,0.08255 -0.233891,0.5916082 -0.197203,0.00459 Q 44.773316,5.1618535 44.612802,5.1618535 Z"
         style="font-family:Alegreya;-inkscape-font-specification:'Alegreya Bold';fill:#8d0000;stroke-width:6"
         id="path2597" />
      <path
         d="m 46.094117,6.8816448 q -0.389819,0 -0.605366,-0.2338916 -0.215547,-0.2338916 -0.215547,-0.6649859 0,-0.3118555 0.08714,-0.5640916 0.08714,-0.252236 0.24765,-0.4310943 0.1651,-0.1834444 0.394405,-0.2797528 0.229306,-0.1008944 0.509058,-0.1008944 0.398992,0 0.609953,0.2247194 0.210961,0.2201333 0.210961,0.6420554 0,0.3164416 -0.08714,0.5778499 -0.08714,0.2568222 -0.252236,0.4448527 -0.160514,0.1834444 -0.389819,0.2843388 -0.229306,0.1008944 -0.509059,0.1008944 z m 0.178859,-0.4907137 q 0.08714,0 0.137583,-0.064206 0.05045,-0.064205 0.07338,-0.2293055 0.02293,-0.1651 0.02293,-0.458611 0,-0.2568222 -0.03669,-0.3668888 -0.03669,-0.1146528 -0.137583,-0.1146528 -0.08714,0 -0.142169,0.064206 -0.05045,0.064206 -0.07338,0.2155472 -0.02293,0.1467555 -0.02293,0.4035776 0,0.3072694 0.03669,0.4310944 0.04127,0.1192389 0.142169,0.1192389 z"
         style="font-family:Alegreya;-inkscape-font-specification:'Alegreya Bold';fill:#8d0000;stroke-width:6"
         id="path2599" />
      <path
         d="m 50.680227,6.1065922 q 0.01376,0 0.0321,-0.013758 0.01834,-0.013758 0.06421,-0.055033 0.05045,-0.041275 0.142169,-0.1192389 l 0.110067,0.018345 0.08714,0.2201332 q -0.243064,0.2705805 -0.41275,0.4265083 -0.1651,0.1559277 -0.293511,0.2201333 -0.128411,0.064205 -0.256822,0.064205 -0.302684,0 -0.302684,-0.2705805 0,-0.059619 0.02752,-0.1696861 0.02752,-0.1146527 0.06879,-0.252236 0.04586,-0.1375833 0.08714,-0.2751666 0.04127,-0.1375833 0.06879,-0.24765 0.02752,-0.1100666 0.02752,-0.1605138 0,-0.064206 -0.02293,-0.096308 -0.01834,-0.032103 -0.05962,-0.032103 -0.05503,0 -0.151341,0.1375833 -0.09631,0.1329972 -0.210962,0.3668888 -0.114652,0.2338916 -0.229305,0.5319888 l -0.02293,0.2201333 q -0.0046,0.064205 -0.10548,0.1192388 -0.09631,0.055033 -0.24765,0.087136 -0.151342,0.032103 -0.325614,0.032103 l -0.09172,-0.1054805 q 0,0 0.01834,-0.077964 0.02293,-0.08255 0.05503,-0.2155472 0.03669,-0.1329972 0.07338,-0.2843388 0.03669,-0.1513417 0.06879,-0.2935111 0.03669,-0.1467555 0.05503,-0.2568221 0.02293,-0.1146528 0.02293,-0.1559278 0,-0.059619 -0.01834,-0.08255 -0.01834,-0.022931 -0.06879,-0.022931 -0.05045,0 -0.132997,0.1284111 -0.08255,0.1238249 -0.183445,0.3485443 -0.100894,0.2201333 -0.201789,0.5090583 l -0.0321,0.2705805 q -0.0092,0.064205 -0.105481,0.1192388 -0.09631,0.055033 -0.24765,0.087136 -0.151341,0.032103 -0.325614,0.032103 l -0.09172,-0.1054805 q 0,0 0.01376,-0.087136 0.01376,-0.087136 0.03669,-0.2293055 0.02752,-0.1467556 0.05503,-0.3164416 0.02752,-0.1696861 0.05045,-0.3347861 0.02752,-0.1696861 0.05045,-0.3026832 0.02293,-0.1329972 0.0321,-0.1972028 0.01376,-0.1100666 -0.02293,-0.1513416 -0.0321,-0.045861 -0.123825,-0.045861 h -0.128411 l 0.05503,-0.376061 q 0.151341,0 0.325613,-0.00917 0.178859,-0.00917 0.334786,-0.018344 0.160514,-0.00917 0.261409,-0.018344 0.100894,-0.00917 0.100894,-0.00917 l 0.06421,0.096308 q 0,0 -0.01835,0.05962 -0.01376,0.059619 -0.04127,0.1605138 -0.02293,0.096308 -0.05045,0.2201333 -0.02293,0.123825 -0.04128,0.24765 l 0.0321,-0.00459 q 0.142169,-0.3256139 0.275166,-0.5365749 0.137584,-0.2155472 0.265995,-0.2980972 0.311855,0 0.490714,0.1284111 0.178858,0.1284111 0.178858,0.3577166 0,0.041275 -0.0092,0.1008944 -0.0092,0.059619 -0.02293,0.1192389 -0.01376,0.055033 -0.02293,0.096308 -0.0092,0.036689 -0.0092,0.036689 l 0.0321,-0.00459 q 0.14217,-0.3256139 0.275167,-0.5365749 0.137583,-0.2155472 0.265994,-0.2980972 0.321028,0 0.499886,0.1329972 0.183445,0.1284111 0.183445,0.3577166 0,0.068792 -0.03669,0.206375 -0.03669,0.1375833 -0.08714,0.293511 -0.04586,0.1559277 -0.09172,0.293511 -0.04127,0.1329972 -0.05503,0.206375 z"
         style="font-family:Alegreya;-inkscape-font-specification:'Alegreya Bold';fill:#8d0000;stroke-width:6"
         id="path2601" />
      <path
         d="m 52.051475,6.1203506 q 0.02293,0 0.05503,-0.027517 0.03669,-0.032103 0.183444,-0.1605139 l 0.105481,0.018345 0.09172,0.2201333 q -0.233891,0.2659944 -0.403578,0.4219221 -0.165099,0.1559277 -0.298097,0.2247194 -0.132997,0.064205 -0.261408,0.064205 -0.302683,0 -0.302683,-0.3072693 0.06879,-0.4081638 0.114653,-0.6925027 0.04586,-0.2843388 0.06879,-0.4448526 0.02293,-0.1651 0.02293,-0.1972028 0,-0.077964 -0.03669,-0.1146527 -0.03669,-0.036689 -0.114653,-0.036689 h -0.128411 l 0.05503,-0.376061 q 0.114653,0 0.279753,-0.00459 0.169686,-0.00917 0.362303,-0.022931 0.192616,-0.013758 0.380647,-0.027517 l 0.07338,0.091722 q -0.05045,0.1926167 -0.100895,0.4356805 -0.05045,0.2384777 -0.09631,0.4815416 -0.04127,0.2384777 -0.06879,0.4402665 z M 51.854272,4.4280759 q -0.183444,0 -0.284339,-0.096308 -0.09631,-0.096308 -0.09631,-0.2705805 0,-0.2476499 0.142169,-0.3944055 Q 51.76255,3.51544 52.001028,3.51544 q 0.183444,0 0.279752,0.1008944 0.09631,0.096308 0.09631,0.2705805 0,0.2430639 -0.146756,0.3944055 -0.142169,0.1467555 -0.376062,0.1467555 z"
         style="font-family:Alegreya;-inkscape-font-specification:'Alegreya Bold';fill:#8d0000;stroke-width:6"
         id="path2603" />
      <path
         d="m 54.023505,6.8678865 q -0.298097,0 -0.298097,-0.2705805 0,-0.059619 0.02752,-0.1696861 0.02752,-0.1146527 0.06879,-0.252236 0.04127,-0.1375833 0.07796,-0.2751666 0.04128,-0.1375833 0.06879,-0.24765 0.02752,-0.1100666 0.02752,-0.1605138 0,-0.064206 -0.01834,-0.096308 -0.01834,-0.032103 -0.05503,-0.032103 -0.05045,0 -0.137583,0.1421694 -0.08714,0.1421694 -0.192616,0.3944055 -0.100895,0.2476499 -0.201789,0.5640915 l 0.119239,-1.0135303 0.10548,-0.013758 q 0.137583,-0.3302 0.265994,-0.541161 0.132998,-0.2109611 0.24765,-0.2935111 0.316442,0 0.4953,0.1329972 0.178859,0.1284111 0.178859,0.3577166 0,0.068792 -0.03669,0.206375 -0.0321,0.1375833 -0.08255,0.293511 -0.04586,0.1559277 -0.08714,0.293511 -0.04127,0.1329972 -0.05503,0.206375 l 0.01376,0.013758 q 0.01376,0 0.03669,-0.013758 0.02293,-0.018344 0.06879,-0.059619 0.04586,-0.041275 0.123825,-0.1146528 l 0.110067,0.018345 0.08255,0.2201332 q -0.243064,0.2751666 -0.408164,0.4310944 -0.1651,0.1513416 -0.293511,0.2155472 -0.123825,0.064205 -0.252236,0.064205 z M 52.72105,6.8587165 52.62933,6.753236 q 0.0321,-0.1926167 0.06421,-0.4173361 0.03669,-0.2247194 0.06879,-0.4356804 0.03669,-0.2155472 0.05962,-0.3760611 0.02752,-0.1650999 0.04127,-0.2384777 0.01834,-0.1054805 -0.01376,-0.1513416 -0.0321,-0.045861 -0.123825,-0.045861 H 52.60181 l 0.05503,-0.376061 q 0.169686,0 0.449439,-0.013758 0.279753,-0.018344 0.559505,-0.041275 l 0.05962,0.096308 q -0.02752,0.096308 -0.05962,0.2338917 -0.02752,0.1375833 -0.05503,0.2751666 -0.02293,0.1375833 -0.03669,0.2430638 l -0.137583,0.7704665 -0.04128,0.3439583 q -0.0092,0.064205 -0.105481,0.1192388 -0.09172,0.055033 -0.243064,0.087136 -0.151341,0.032103 -0.325613,0.032103 z"
         style="font-family:Alegreya;-inkscape-font-specification:'Alegreya Bold';fill:#8d0000;stroke-width:6"
         id="path2605" />
      <path
         d="m 55.509406,7.9364502 q -0.279753,0 -0.490714,-0.087136 -0.210961,-0.08255 -0.316441,-0.2384778 -0.110067,-0.1513416 -0.08714,-0.3485443 l 0.01834,-0.05962 q 0.07338,-0.041275 0.201789,-0.1054805 0.123825,-0.059619 0.261408,-0.1284111 0.14217,-0.068792 0.256822,-0.1192388 l 0.0046,-0.032103 q -0.1651,-0.073378 -0.256823,-0.2430638 -0.08714,-0.1696861 -0.08714,-0.4081638 0,-0.2705805 0.100895,-0.5365749 0.100894,-0.2705805 0.27058,-0.4907138 0.169686,-0.2201333 0.376061,-0.3485444 0.206375,-0.1329972 0.417336,-0.1329972 l 0.3302,0.096308 0.02293,-0.096308 0.09172,-0.050447 0.609953,0.050447 0.06879,0.1284111 q -0.03669,0.091722 -0.07796,0.2293055 -0.04128,0.1375833 -0.06879,0.2797527 -0.02752,0.1375833 -0.04127,0.2430639 -0.0046,0.055033 -0.01834,0.1926166 -0.0092,0.1375833 -0.02293,0.3164416 -0.0092,0.1742722 -0.02293,0.3439583 -0.01376,0.1650999 -0.02752,0.2751666 -0.01835,0.1513416 -0.128412,0.3256138 -0.10548,0.1742722 -0.27058,0.3393721 -0.1651,0.1651 -0.362303,0.3026833 -0.192616,0.1375833 -0.389819,0.2201333 -0.197203,0.08255 -0.362303,0.08255 z m 0.261408,-0.5732638 q 0.233892,0 0.376061,-0.1375833 0.146756,-0.1375833 0.178859,-0.3989916 l 0.09631,-0.7979831 -0.04586,-0.013758 q -0.192617,0.2980972 -0.311856,0.4677833 -0.114652,0.1650999 -0.192616,0.2476499 -0.07338,0.08255 -0.146756,0.1329972 -0.07796,0.050447 -0.1651,0.1146528 -0.08714,0.064205 -0.146755,0.1146527 -0.05962,0.050447 -0.05962,0.064205 0,0.055033 0.05503,0.1008945 0.05503,0.050447 0.151341,0.077964 0.09631,0.027517 0.210961,0.027517 z m 0.151342,-1.1923886 q 0.05045,0 0.132997,-0.1329972 0.08714,-0.1375833 0.174272,-0.3485444 0.09172,-0.2109611 0.151342,-0.4310943 0,0 -0.05045,-0.027517 -0.05045,-0.032103 -0.128411,-0.059619 -0.07338,-0.027517 -0.155928,-0.027517 -0.04586,0 -0.09172,0.1100666 -0.04586,0.1100667 -0.07796,0.2751667 -0.02752,0.1650999 -0.02752,0.3393721 0,0.1375833 0.01834,0.2201333 0.02293,0.08255 0.05503,0.08255 z"
         style="font-family:Alegreya;-inkscape-font-specification:'Alegreya Bold';fill:#8d0000;stroke-width:6"
         id="path2607" />
    </g>
  </g>
</svg>
